<?xml version="1.0" encoding="UTF-8" standalone="no"?>
<!-- Created with Inkscape (http://www.inkscape.org/) -->

<svg
   xmlns:dc="http://purl.org/dc/elements/1.1/"
   xmlns:cc="http://creativecommons.org/ns#"
   xmlns:rdf="http://www.w3.org/1999/02/22-rdf-syntax-ns#"
   xmlns:svg="http://www.w3.org/2000/svg"
   xmlns="http://www.w3.org/2000/svg"
   xmlns:sodipodi="http://sodipodi.sourceforge.net/DTD/sodipodi-0.dtd"
   xmlns:inkscape="http://www.inkscape.org/namespaces/inkscape"
   width="549.79822"
   height="186.56055"
   id="svg2"
   version="1.1"
   inkscape:version="0.48.2 r9819"
   sodipodi:docname="iojs_jupiter_js.svg">
  <defs
     id="defs4">
    <filter
       id="filter4757"
       inkscape:label="Desaturate"
       x="0"
       y="0"
       width="1"
       height="1"
       inkscape:menu="Color"
       inkscape:menu-tooltip="Render in shades of gray by reducing saturation to zero"
       color-interpolation-filters="sRGB">
      <feColorMatrix
         id="feColorMatrix4759"
         type="saturate"
         values="0" />
    </filter>
    <filter
       id="filter4761"
       inkscape:label="Desaturate"
       x="0"
       y="0"
       width="1"
       height="1"
       inkscape:menu="Color"
       inkscape:menu-tooltip="Render in shades of gray by reducing saturation to zero"
       color-interpolation-filters="sRGB">
      <feColorMatrix
         id="feColorMatrix4763"
         type="saturate"
         values="0" />
    </filter>
    <filter
       id="filter4765"
       inkscape:label="Desaturate"
       x="0"
       y="0"
       width="1"
       height="1"
       inkscape:menu="Color"
       inkscape:menu-tooltip="Render in shades of gray by reducing saturation to zero"
       color-interpolation-filters="sRGB">
      <feColorMatrix
         id="feColorMatrix4767"
         type="saturate"
         values="0" />
    </filter>
    <filter
       id="filter4769"
       inkscape:label="Desaturate"
       x="0"
       y="0"
       width="1"
       height="1"
       inkscape:menu="Color"
       inkscape:menu-tooltip="Render in shades of gray by reducing saturation to zero"
       color-interpolation-filters="sRGB">
      <feColorMatrix
         id="feColorMatrix4771"
         type="saturate"
         values="0" />
    </filter>
    <filter
       id="filter4773"
       inkscape:label="Desaturate"
       x="0"
       y="0"
       width="1"
       height="1"
       inkscape:menu="Color"
       inkscape:menu-tooltip="Render in shades of gray by reducing saturation to zero"
       color-interpolation-filters="sRGB">
      <feColorMatrix
         id="feColorMatrix4775"
         type="saturate"
         values="0" />
    </filter>
    <filter
       id="filter4777"
       inkscape:label="Desaturate"
       x="0"
       y="0"
       width="1"
       height="1"
       inkscape:menu="Color"
       inkscape:menu-tooltip="Render in shades of gray by reducing saturation to zero"
       color-interpolation-filters="sRGB">
      <feColorMatrix
         id="feColorMatrix4779"
         type="saturate"
         values="0" />
    </filter>
    <filter
       id="filter4781"
       inkscape:label="Desaturate"
       x="0"
       y="0"
       width="1"
       height="1"
       inkscape:menu="Color"
       inkscape:menu-tooltip="Render in shades of gray by reducing saturation to zero"
       color-interpolation-filters="sRGB">
      <feColorMatrix
         id="feColorMatrix4783"
         type="saturate"
         values="0" />
    </filter>
    <filter
       id="filter4785"
       inkscape:label="Desaturate"
       x="0"
       y="0"
       width="1"
       height="1"
       inkscape:menu="Color"
       inkscape:menu-tooltip="Render in shades of gray by reducing saturation to zero"
       color-interpolation-filters="sRGB">
      <feColorMatrix
         id="feColorMatrix4787"
         type="saturate"
         values="0" />
    </filter>
    <filter
       id="filter4789"
       inkscape:label="Desaturate"
       x="0"
       y="0"
       width="1"
       height="1"
       inkscape:menu="Color"
       inkscape:menu-tooltip="Render in shades of gray by reducing saturation to zero"
       color-interpolation-filters="sRGB">
      <feColorMatrix
         id="feColorMatrix4791"
         type="saturate"
         values="0" />
    </filter>
    <filter
       id="filter4793"
       inkscape:label="Desaturate"
       x="0"
       y="0"
       width="1"
       height="1"
       inkscape:menu="Color"
       inkscape:menu-tooltip="Render in shades of gray by reducing saturation to zero"
       color-interpolation-filters="sRGB">
      <feColorMatrix
         id="feColorMatrix4795"
         type="saturate"
         values="0" />
    </filter>
    <filter
       id="filter4902"
       inkscape:label="Desaturate"
       x="0"
       y="0"
       width="1"
       height="1"
       inkscape:menu="Color"
       inkscape:menu-tooltip="Render in shades of gray by reducing saturation to zero"
       color-interpolation-filters="sRGB">
      <feColorMatrix
         id="feColorMatrix4904"
         type="saturate"
         values="0" />
    </filter>
    <filter
       id="filter4906"
       inkscape:label="Desaturate"
       x="0"
       y="0"
       width="1"
       height="1"
       inkscape:menu="Color"
       inkscape:menu-tooltip="Render in shades of gray by reducing saturation to zero"
       color-interpolation-filters="sRGB">
      <feColorMatrix
         id="feColorMatrix4908"
         type="saturate"
         values="0" />
    </filter>
    <filter
       id="filter4910"
       inkscape:label="Desaturate"
       x="0"
       y="0"
       width="1"
       height="1"
       inkscape:menu="Color"
       inkscape:menu-tooltip="Render in shades of gray by reducing saturation to zero"
       color-interpolation-filters="sRGB">
      <feColorMatrix
         id="feColorMatrix4912"
         type="saturate"
         values="0" />
    </filter>
    <filter
       id="filter4914"
       inkscape:label="Desaturate"
       x="0"
       y="0"
       width="1"
       height="1"
       inkscape:menu="Color"
       inkscape:menu-tooltip="Render in shades of gray by reducing saturation to zero"
       color-interpolation-filters="sRGB">
      <feColorMatrix
         id="feColorMatrix4916"
         type="saturate"
         values="0" />
    </filter>
    <filter
       id="filter4918"
       inkscape:label="Desaturate"
       x="0"
       y="0"
       width="1"
       height="1"
       inkscape:menu="Color"
       inkscape:menu-tooltip="Render in shades of gray by reducing saturation to zero"
       color-interpolation-filters="sRGB">
      <feColorMatrix
         id="feColorMatrix4920"
         type="saturate"
         values="0" />
    </filter>
    <filter
       id="filter4922"
       inkscape:label="Desaturate"
       x="0"
       y="0"
       width="1"
       height="1"
       inkscape:menu="Color"
       inkscape:menu-tooltip="Render in shades of gray by reducing saturation to zero"
       color-interpolation-filters="sRGB">
      <feColorMatrix
         id="feColorMatrix4924"
         type="saturate"
         values="0" />
    </filter>
    <filter
       id="filter5009"
       inkscape:label="Desaturate"
       x="0"
       y="0"
       width="1"
       height="1"
       inkscape:menu="Color"
       inkscape:menu-tooltip="Render in shades of gray by reducing saturation to zero"
       color-interpolation-filters="sRGB">
      <feColorMatrix
         id="feColorMatrix5011"
         type="saturate"
         values="0" />
    </filter>
    <filter
       id="filter5298"
       inkscape:label="Desaturate"
       x="0"
       y="0"
       width="1"
       height="1"
       inkscape:menu="Color"
       inkscape:menu-tooltip="Render in shades of gray by reducing saturation to zero"
       color-interpolation-filters="sRGB">
      <feColorMatrix
         id="feColorMatrix5300"
         type="saturate"
         values="0" />
    </filter>
    <filter
       id="filter5441"
       inkscape:label="Duotone"
       inkscape:menu="Color"
       inkscape:menu-tooltip="Change colors to a duotone palette"
       height="1"
       width="1"
       y="0"
       x="0"
       color-interpolation-filters="sRGB">
      <feColorMatrix
         id="feColorMatrix5443"
         type="saturate"
         values="0"
         result="result1" />
      <feFlood
         id="feFlood5445"
         flood-color="rgb(9,111,152)"
         result="result2" />
      <feBlend
         id="feBlend5447"
         in2="result1"
         mode="screen"
         result="result2" />
      <feComposite
         id="feComposite5449"
         in2="SourceGraphic"
         operator="in"
         in="result2" />
    </filter>
    <filter
       id="filter5451"
       inkscape:label="Duotone"
       inkscape:menu="Color"
       inkscape:menu-tooltip="Change colors to a duotone palette"
       height="1"
       width="1"
       y="0"
       x="0"
       color-interpolation-filters="sRGB">
      <feColorMatrix
         id="feColorMatrix5453"
         type="saturate"
         values="0"
         result="result1" />
      <feFlood
         id="feFlood5455"
         flood-color="rgb(9,111,152)"
         result="result2" />
      <feBlend
         id="feBlend5457"
         in2="result1"
         mode="screen"
         result="result2" />
      <feComposite
         id="feComposite5459"
         in2="SourceGraphic"
         operator="in"
         in="result2" />
    </filter>
    <filter
       id="filter5461"
       inkscape:label="Duotone"
       inkscape:menu="Color"
       inkscape:menu-tooltip="Change colors to a duotone palette"
       height="1"
       width="1"
       y="0"
       x="0"
       color-interpolation-filters="sRGB">
      <feColorMatrix
         id="feColorMatrix5463"
         type="saturate"
         values="0"
         result="result1" />
      <feFlood
         id="feFlood5465"
         flood-color="rgb(9,111,152)"
         result="result2" />
      <feBlend
         id="feBlend5467"
         in2="result1"
         mode="screen"
         result="result2" />
      <feComposite
         id="feComposite5469"
         in2="SourceGraphic"
         operator="in"
         in="result2" />
    </filter>
    <filter
       id="filter5471"
       inkscape:label="Duotone"
       inkscape:menu="Color"
       inkscape:menu-tooltip="Change colors to a duotone palette"
       height="1"
       width="1"
       y="0"
       x="0"
       color-interpolation-filters="sRGB">
      <feColorMatrix
         id="feColorMatrix5473"
         type="saturate"
         values="0"
         result="result1" />
      <feFlood
         id="feFlood5475"
         flood-color="rgb(9,111,152)"
         result="result2" />
      <feBlend
         id="feBlend5477"
         in2="result1"
         mode="screen"
         result="result2" />
      <feComposite
         id="feComposite5479"
         in2="SourceGraphic"
         operator="in"
         in="result2" />
    </filter>
    <filter
       id="filter5481"
       inkscape:label="Duotone"
       inkscape:menu="Color"
       inkscape:menu-tooltip="Change colors to a duotone palette"
       height="1"
       width="1"
       y="0"
       x="0"
       color-interpolation-filters="sRGB">
      <feColorMatrix
         id="feColorMatrix5483"
         type="saturate"
         values="0"
         result="result1" />
      <feFlood
         id="feFlood5485"
         flood-color="rgb(9,111,152)"
         result="result2" />
      <feBlend
         id="feBlend5487"
         in2="result1"
         mode="screen"
         result="result2" />
      <feComposite
         id="feComposite5489"
         in2="SourceGraphic"
         operator="in"
         in="result2" />
    </filter>
    <filter
       id="filter5491"
       inkscape:label="Duotone"
       inkscape:menu="Color"
       inkscape:menu-tooltip="Change colors to a duotone palette"
       height="1"
       width="1"
       y="0"
       x="0"
       color-interpolation-filters="sRGB">
      <feColorMatrix
         id="feColorMatrix5493"
         type="saturate"
         values="0"
         result="result1" />
      <feFlood
         id="feFlood5495"
         flood-color="rgb(9,111,152)"
         result="result2" />
      <feBlend
         id="feBlend5497"
         in2="result1"
         mode="screen"
         result="result2" />
      <feComposite
         id="feComposite5499"
         in2="SourceGraphic"
         operator="in"
         in="result2" />
    </filter>
    <filter
       id="filter5563"
       inkscape:label="Duotone"
       inkscape:menu="Color"
       inkscape:menu-tooltip="Change colors to a duotone palette"
       height="1"
       width="1"
       y="0"
       x="0"
       color-interpolation-filters="sRGB">
      <feColorMatrix
         id="feColorMatrix5565"
         type="saturate"
         values="0"
         result="result1" />
      <feFlood
         id="feFlood5567"
         flood-color="rgb(9,111,152)"
         result="result2" />
      <feBlend
         id="feBlend5569"
         in2="result1"
         mode="screen"
         result="result2" />
      <feComposite
         id="feComposite5571"
         in2="SourceGraphic"
         operator="in"
         in="result2" />
    </filter>
    <filter
       id="filter5573"
       inkscape:label="Duotone"
       inkscape:menu="Color"
       inkscape:menu-tooltip="Change colors to a duotone palette"
       height="1"
       width="1"
       y="0"
       x="0"
       color-interpolation-filters="sRGB">
      <feColorMatrix
         id="feColorMatrix5575"
         type="saturate"
         values="0"
         result="result1" />
      <feFlood
         id="feFlood5577"
         flood-color="rgb(9,111,152)"
         result="result2" />
      <feBlend
         id="feBlend5579"
         in2="result1"
         mode="screen"
         result="result2" />
      <feComposite
         id="feComposite5581"
         in2="SourceGraphic"
         operator="in"
         in="result2" />
    </filter>
    <filter
       id="filter5583"
       inkscape:label="Duotone"
       inkscape:menu="Color"
       inkscape:menu-tooltip="Change colors to a duotone palette"
       height="1"
       width="1"
       y="0"
       x="0"
       color-interpolation-filters="sRGB">
      <feColorMatrix
         id="feColorMatrix5585"
         type="saturate"
         values="0"
         result="result1" />
      <feFlood
         id="feFlood5587"
         flood-color="rgb(9,111,152)"
         result="result2" />
      <feBlend
         id="feBlend5589"
         in2="result1"
         mode="screen"
         result="result2" />
      <feComposite
         id="feComposite5591"
         in2="SourceGraphic"
         operator="in"
         in="result2" />
    </filter>
    <filter
       id="filter5593"
       inkscape:label="Duotone"
       inkscape:menu="Color"
       inkscape:menu-tooltip="Change colors to a duotone palette"
       height="1"
       width="1"
       y="0"
       x="0"
       color-interpolation-filters="sRGB">
      <feColorMatrix
         id="feColorMatrix5595"
         type="saturate"
         values="0"
         result="result1" />
      <feFlood
         id="feFlood5597"
         flood-color="rgb(9,111,152)"
         result="result2" />
      <feBlend
         id="feBlend5599"
         in2="result1"
         mode="screen"
         result="result2" />
      <feComposite
         id="feComposite5601"
         in2="SourceGraphic"
         operator="in"
         in="result2" />
    </filter>
    <filter
       id="filter5603"
       inkscape:label="Duotone"
       inkscape:menu="Color"
       inkscape:menu-tooltip="Change colors to a duotone palette"
       height="1"
       width="1"
       y="0"
       x="0"
       color-interpolation-filters="sRGB">
      <feColorMatrix
         id="feColorMatrix5605"
         type="saturate"
         values="0"
         result="result1" />
      <feFlood
         id="feFlood5607"
         flood-color="rgb(9,111,152)"
         result="result2" />
      <feBlend
         id="feBlend5609"
         in2="result1"
         mode="screen"
         result="result2" />
      <feComposite
         id="feComposite5611"
         in2="SourceGraphic"
         operator="in"
         in="result2" />
    </filter>
    <filter
       id="filter5613"
       inkscape:label="Duotone"
       inkscape:menu="Color"
       inkscape:menu-tooltip="Change colors to a duotone palette"
       height="1"
       width="1"
       y="0"
       x="0"
       color-interpolation-filters="sRGB">
      <feColorMatrix
         id="feColorMatrix5615"
         type="saturate"
         values="0"
         result="result1" />
      <feFlood
         id="feFlood5617"
         flood-color="rgb(9,111,152)"
         result="result2" />
      <feBlend
         id="feBlend5619"
         in2="result1"
         mode="screen"
         result="result2" />
      <feComposite
         id="feComposite5621"
         in2="SourceGraphic"
         operator="in"
         in="result2" />
    </filter>
    <filter
       id="filter5739"
       inkscape:label="Desaturate"
       x="0"
       y="0"
       width="1"
       height="1"
       inkscape:menu="Color"
       inkscape:menu-tooltip="Render in shades of gray by reducing saturation to zero"
       color-interpolation-filters="sRGB">
      <feColorMatrix
         id="feColorMatrix5741"
         type="saturate"
         values="0" />
    </filter>
    <filter
       id="filter6092"
       inkscape:label="Desaturate"
       x="0"
       y="0"
       width="1"
       height="1"
       inkscape:menu="Color"
       inkscape:menu-tooltip="Render in shades of gray by reducing saturation to zero"
       color-interpolation-filters="sRGB">
      <feColorMatrix
         id="feColorMatrix6094"
         type="saturate"
         values="0" />
    </filter>
    <filter
       id="filter6096"
       inkscape:label="Desaturate"
       x="0"
       y="0"
       width="1"
       height="1"
       inkscape:menu="Color"
       inkscape:menu-tooltip="Render in shades of gray by reducing saturation to zero"
       color-interpolation-filters="sRGB">
      <feColorMatrix
         id="feColorMatrix6098"
         type="saturate"
         values="0" />
    </filter>
  </defs>
  <sodipodi:namedview
     id="base"
     pagecolor="#ffffff"
     bordercolor="#666666"
     borderopacity="1.0"
     inkscape:pageopacity="0.0"
     inkscape:pageshadow="2"
     inkscape:zoom="1.192317"
     inkscape:cx="528.07902"
     inkscape:cy="123.47328"
     inkscape:document-units="px"
     inkscape:current-layer="layer1"
     showgrid="false"
     inkscape:window-width="1918"
     inkscape:window-height="1078"
     inkscape:window-x="0"
     inkscape:window-y="0"
     inkscape:window-maximized="0"
     fit-margin-top="5"
     fit-margin-left="5"
     fit-margin-bottom="5"
     fit-margin-right="5" />
  <metadata
     id="metadata7">
    <rdf:RDF>
      <cc:Work
         rdf:about="">
        <dc:format>image/svg+xml</dc:format>
        <dc:type
           rdf:resource="http://purl.org/dc/dcmitype/StillImage" />
        <dc:title />
      </cc:Work>
    </rdf:RDF>
  </metadata>
  <g
     inkscape:label="Layer 1"
     inkscape:groupmode="layer"
     id="layer1"
     transform="translate(-48.60859,-75.341328)">
    <g
       id="g3143"
       transform="translate(0,1.8387628)">
      <path
         transform="matrix(1.0243302,0,0,1.0243302,85.985983,-508.80857)"
         d="m 211.25764,658.03284 c 0,45.49091 -36.87767,82.36858 -82.36859,82.36858 -45.490909,0 -82.36858,-36.87767 -82.36858,-82.36858 0,-45.49092 36.877671,-82.36859 82.36858,-82.36859 45.49092,0 82.36859,36.87767 82.36859,82.36859 z"
         sodipodi:ry="82.368584"
         sodipodi:rx="82.368584"
         sodipodi:cy="658.03284"
         sodipodi:cx="128.88905"
         id="path3234"
         style="color:#000000;fill:#ffa158;fill-opacity:1;fill-rule:nonzero;stroke:none;stroke-width:1;marker:none;visibility:visible;display:inline;overflow:visible;enable-background:accumulate"
         sodipodi:type="arc" />
      <path
         inkscape:connector-curvature="0"
         id="rect4582"
         d="m 137.53564,190.56643 c 3.75443,11.9341 10.0805,22.72992 18.34191,31.72222 l 124.26405,0 c 8.26141,-8.9923 14.58748,-19.78812 18.34191,-31.72222 l -160.94787,0 z"
         style="color:#000000;fill:#ffcba2;fill-opacity:1;fill-rule:nonzero;stroke:#ffffff;stroke-width:1.02433014;stroke-linecap:round;stroke-linejoin:round;stroke-miterlimit:4;stroke-opacity:0;stroke-dasharray:none;stroke-dashoffset:0;marker:none;visibility:visible;display:inline;overflow:visible;enable-background:accumulate" />
      <path
         id="path4447"
         d="m 135.43844,182.64631 c 1.36744,6.51312 3.49908,12.76446 6.27402,18.63 l 152.59319,0 c 2.77493,-5.86554 4.90659,-12.11688 6.27402,-18.63 l -165.14123,0 z"
         style="fill:#fe5210;fill-opacity:1;stroke:#ffffff;stroke-width:1.02433014px;stroke-linecap:butt;stroke-linejoin:miter;stroke-opacity:0"
         inkscape:connector-curvature="0" />
      <path
         sodipodi:type="arc"
         style="color:#000000;fill:#ffcba2;fill-opacity:1;fill-rule:nonzero;stroke:#ffffff;stroke-width:1;stroke-linecap:round;stroke-linejoin:round;stroke-miterlimit:4;stroke-opacity:0;stroke-dasharray:none;stroke-dashoffset:0;marker:none;visibility:visible;display:inline;overflow:visible;enable-background:accumulate"
         id="path4388"
         sodipodi:cx="339.59183"
         sodipodi:cy="675.81189"
         sodipodi:rx="23.129307"
         sodipodi:ry="13.532904"
         d="m 362.72113,675.81189 c 0,7.47402 -10.35534,13.5329 -23.1293,13.5329 -12.77397,0 -23.12931,-6.05888 -23.12931,-13.5329 0,-7.47402 10.35534,-13.5329 23.12931,-13.5329 12.77396,0 23.1293,6.05888 23.1293,13.5329 z"
         transform="matrix(1.0211354,-0.08083751,0.08083751,1.0211354,-149.24249,-459.37703)" />
      <path
         transform="matrix(1.0211354,-0.08083751,0.08083751,1.0211354,-148.84608,-459.37703)"
         d="m 356.42629,675.81189 c 0,5.34334 -7.53704,9.67498 -16.83446,9.67498 -9.29742,0 -16.83447,-4.33164 -16.83447,-9.67498 0,-5.34334 7.53705,-9.67498 16.83447,-9.67498 9.29742,0 16.83446,4.33164 16.83446,9.67498 z"
         sodipodi:ry="9.6749811"
         sodipodi:rx="16.834467"
         sodipodi:cy="675.81189"
         sodipodi:cx="339.59183"
         id="path4386"
         style="color:#000000;fill:#fe5210;fill-opacity:1;fill-rule:nonzero;stroke:#ffffff;stroke-width:1;stroke-linecap:round;stroke-linejoin:round;stroke-miterlimit:4;stroke-opacity:0;stroke-dasharray:none;stroke-dashoffset:0;marker:none;visibility:visible;display:inline;overflow:visible;enable-background:accumulate"
         sodipodi:type="arc" />
      <path
         id="rect4463"
         d="m 150.89942,216.35317 c 4.28047,5.61028 9.25915,10.66551 14.78877,15.04484 l 104.64174,0 c 5.53296,-4.38085 10.50612,-9.43174 14.78876,-15.04484 l -134.21927,0 z"
         style="color:#000000;fill:#fe7110;fill-opacity:1;fill-rule:nonzero;stroke:#ffffff;stroke-width:1.02433014;stroke-linecap:round;stroke-linejoin:round;stroke-miterlimit:4;stroke-opacity:0;stroke-dasharray:none;stroke-dashoffset:0;marker:none;visibility:visible;display:inline;overflow:visible;enable-background:accumulate"
         inkscape:connector-curvature="0" />
      <path
         inkscape:connector-curvature="0"
         id="rect4532"
         d="m 155.90956,108.10785 c -11.02997,11.98631 -18.62912,27.17756 -21.25485,44.01419 l 166.70973,0 c -2.62573,-16.83663 -10.22488,-32.02788 -21.25485,-44.01419 l -124.20003,0 z"
         style="color:#000000;fill:#ffcba2;fill-opacity:1;fill-rule:nonzero;stroke:#ffffff;stroke-width:1.02433014;stroke-linecap:round;stroke-linejoin:round;stroke-miterlimit:4;stroke-opacity:0;stroke-dasharray:none;stroke-dashoffset:0;marker:none;visibility:visible;display:inline;overflow:visible;enable-background:accumulate" />
      <path
         id="rect4490"
         d="m 135.98262,145.38629 c -1.32564,5.49785 -2.0828,11.2028 -2.27274,17.06151 l 168.59835,0 c -0.18995,-5.85871 -0.94711,-11.56366 -2.27274,-17.06151 l -164.05287,0 z"
         style="color:#000000;fill:#fe7110;fill-opacity:1;fill-rule:nonzero;stroke:#ffffff;stroke-width:1.02433014;stroke-linecap:round;stroke-linejoin:round;stroke-miterlimit:4;stroke-opacity:0;stroke-dasharray:none;stroke-dashoffset:0;marker:none;visibility:visible;display:inline;overflow:visible;enable-background:accumulate"
         inkscape:connector-curvature="0" />
      <path
         id="rect4506"
         d="m 218.02506,80.853493 c -28.06428,0 -52.93906,13.716147 -68.27801,34.795217 l 136.52401,0 C 270.93211,94.56964 246.08934,80.853493 218.02506,80.853493 z"
         style="color:#000000;fill:#fe5210;fill-opacity:1;fill-rule:nonzero;stroke:#ffffff;stroke-width:1.02433014;stroke-linecap:round;stroke-linejoin:round;stroke-miterlimit:4;stroke-opacity:0;stroke-dasharray:none;stroke-dashoffset:0;marker:none;visibility:visible;display:inline;overflow:visible;enable-background:accumulate"
         inkscape:connector-curvature="0" />
    </g>
    <path
       sodipodi:type="arc"
       style="color:#000000;fill:#2b0000;fill-opacity:1;fill-rule:nonzero;stroke:#ffffff;stroke-width:1;stroke-linecap:round;stroke-linejoin:round;stroke-miterlimit:4;stroke-opacity:0;stroke-dasharray:none;stroke-dashoffset:0;marker:none;visibility:visible;display:inline;overflow:visible;enable-background:accumulate"
       id="path4281"
       sodipodi:cx="91.331825"
       sodipodi:cy="717.99481"
       sodipodi:rx="10.061981"
       sodipodi:ry="10.061981"
       d="m 101.39381,717.99481 a 10.061981,10.061981 0 1 1 -20.123966,0 10.061981,10.061981 0 1 1 20.123966,0 z"
       transform="matrix(1.1215299,0,0,1.1215299,79.357797,-653.54983)" />
    <path
       style="font-size:medium;font-style:normal;font-variant:normal;font-weight:normal;font-stretch:normal;text-indent:0;text-align:start;text-decoration:none;line-height:normal;letter-spacing:normal;word-spacing:normal;text-transform:none;direction:ltr;block-progression:tb;writing-mode:lr-tb;text-anchor:start;baseline-shift:baseline;color:#000000;fill:#2b0000;fill-opacity:1;stroke:none;stroke-width:2;marker:none;visibility:visible;display:inline;overflow:visible;enable-background:accumulate;font-family:Sans;-inkscape-font-specification:Sans"
       d="m 189.25543,147.87069 -5.25251,0.6253 -10.63007,1.45903 0.37518,2.62625 10.58838,-1.41734 0.0416,0 5.21082,-0.66699 -0.33349,-2.62625 z"
       id="path4809"
       inkscape:connector-curvature="0" />
    <path
       id="path4823"
       style="font-size:medium;font-style:normal;font-variant:normal;font-weight:normal;font-stretch:normal;text-indent:0;text-align:start;text-decoration:none;line-height:normal;letter-spacing:normal;word-spacing:normal;text-transform:none;direction:ltr;block-progression:tb;writing-mode:lr-tb;text-anchor:start;baseline-shift:baseline;color:#000000;fill:#2b0000;fill-opacity:1;stroke:none;stroke-width:2;marker:none;visibility:visible;display:inline;overflow:visible;enable-background:accumulate;font-family:Sans;-inkscape-font-specification:Sans"
       d="m 58.026163,194.76807 -1.917582,1.87589 0.08337,0.0834 0.04162,0.0416 0.04162,0.0416 0.750358,0.6253 0.04162,0.0416 0.04162,0.0416 0.833732,0.58362 0,0.0416 0.04162,0.0416 0.95879,0.58361 0.04162,0.0416 0.04162,0.0416 2.209388,1.16722 0.04162,0.0416 0.08337,0 2.626253,1.16723 0.04162,0 0.04162,0.0416 3.126492,1.08386 0.04162,0 3.585045,1.04216 0.04162,0.0416 0.04162,0 0.291805,0.0834 0.666985,-2.58456 -0.291806,-0.0834 -0.04162,0 -3.459985,-1.00047 0,-0.0416 -3.001433,-1.04217 -0.08337,-0.0416 -2.501193,-1.04216 -0.04162,-0.0416 -0.04162,0 -2.000955,-1.08385 -0.124993,-0.0834 -0.750358,-0.50023 -0.08337,-0.0416 -0.666985,-0.50024 -0.08337,-0.0834 -0.583612,-0.50024 -0.08337,-0.0416 0,-0.0416 z m 18.967385,7.37852 -0.541925,2.58457 3.084805,0.62529 0.04162,0.0416 5.044074,0.87542 0.04162,0 5.544312,0.83373 0.04162,0 2.084328,0.25012 0.333493,-2.66794 -2.084328,-0.25012 -5.502626,-0.79204 -0.04162,0 -4.960701,-0.87542 -0.04162,0 -3.043118,-0.6253 z m 20.96834,3.20986 -0.291806,2.62626 5.294198,0.54192 7.17009,0.6253 3.54335,0.25012 0.16675,-2.66794 -3.50167,-0.20843 -7.1284,-0.6253 -5.252512,-0.54193 z m 21.218452,1.75084 -0.16675,2.66794 7.1284,0.41687 0.0416,0 8.83756,0.37517 0.12499,-2.66794 -8.83742,-0.37517 -0.0416,0 -7.08671,-0.41687 z"
       inkscape:connector-curvature="0" />
    <rect
       style="color:#000000;fill:#fe5210;fill-opacity:1;fill-rule:nonzero;stroke:#ffffff;stroke-width:3.49842286;stroke-linecap:round;stroke-linejoin:round;stroke-miterlimit:4;stroke-opacity:0;stroke-dasharray:20.99053734, 6.99684578;stroke-dashoffset:0;marker:none;visibility:visible;display:inline;overflow:visible;enable-background:accumulate"
       id="rect4589"
       width="41.466698"
       height="160.85385"
       x="74.44989"
       y="86.813118"
       ry="15.331704" />
    <path
       id="path4587"
       style="font-size:medium;font-style:normal;font-variant:normal;font-weight:normal;font-stretch:normal;text-indent:0;text-align:start;text-decoration:none;line-height:normal;letter-spacing:normal;word-spacing:normal;text-transform:none;direction:ltr;block-progression:tb;writing-mode:lr-tb;text-anchor:start;baseline-shift:baseline;color:#000000;fill:#2b0000;fill-opacity:1;stroke:none;stroke-width:2;marker:none;visibility:visible;display:inline;overflow:visible;enable-background:accumulate;font-family:Sans;-inkscape-font-specification:Sans"
       d="m 253.28598,143.74372 -3.50167,0.0416 -6.41973,0.0834 -0.0416,0 -6.08623,0.20844 0.0834,2.66794 6.08624,-0.20844 6.41973,-0.0834 3.45998,-0.0416 0,-2.66794 z m 5.37757,0.0416 -0.0416,2.66794 3.79348,0.0416 0.0416,0 6.12792,0.16675 0.0416,0 5.96118,0.25011 0.0834,-2.66794 -5.96118,-0.25011 -0.0416,0 -6.16961,-0.16675 -0.0416,0 -3.79347,-0.0416 z m -26.76277,0.50024 -1.62578,0.0834 -6.58647,0.37518 -6.58648,0.41687 -0.0416,0 -1.16722,0.12499 0.20843,2.62625 1.16722,-0.0834 6.58648,-0.41687 6.54479,-0.37518 0.0416,0 1.58409,-0.0834 -0.12499,-2.66794 z m -21.46858,1.41734 -6.58648,0.58361 -0.0416,0 -6.58647,0.66699 -0.0416,0 -2.58457,0.2918 0.29181,2.66794 2.58456,-0.2918 6.58648,-0.66699 0.0416,0 6.58648,-0.58361 0.0834,0 -0.20843,-2.66794 -0.0834,0 -0.0416,0 z m -42.35353,5.04407 -9.83802,1.54241 -0.0416,0 -5.9195,1.08385 0.45856,2.62625 5.91948,-1.08385 9.83803,-1.5424 -0.41686,-2.62626 z m -21.0934,3.54336 -1.20891,0.20844 -12.00572,2.41782 -2.5012,0.54192 0.58361,2.58457 2.45951,-0.54193 11.96404,-2.37613 1.20891,-0.20843 -0.50024,-2.62626 z m -20.92665,4.3354 -3.79348,0.83374 -5.5443,1.33397 -5.37756,1.33397 -0.91711,0.25012 0.70867,2.58456 0.87542,-0.25012 5.33588,-1.33397 0.0416,0 5.46093,-1.33397 0.0416,0 3.75179,-0.83373 -0.58361,-2.58457 z m -20.80158,5.16914 -4.12697,1.12554 0,0.0416 -4.835645,1.41734 -4.627208,1.45903 -1.792522,0.58361 0.833731,2.54288 1.750836,-0.58361 0.04162,0 4.543835,-1.45903 0.04162,0 4.752273,-1.41734 0.0416,0 4.08528,-1.16723 -0.70867,-2.54288 z m -20.426419,6.37804 -1.750835,0.6253 -0.04162,0 -3.918536,1.50072 -0.04162,0 -3.668418,1.50071 -0.04162,0 -3.418298,1.50072 -0.04162,0 0,0.0416 -2.042642,0.95879 1.167224,2.37613 2.000955,-0.95879 0,0.0416 3.376611,-1.50071 0.04162,0 3.585044,-1.50072 0.04162,0 3.87685,-1.45903 0.04162,0 1.709149,-0.6253 -0.875418,-2.50119 z m -19.759429,8.62912 -1.875895,1.08385 -0.04162,0 0,0.0416 -2.292761,1.45903 -0.04162,0.0416 -0.04162,0.0416 -1.959268,1.45903 -0.04162,0.0416 -0.04162,0.0416 -1.625776,1.45903 -0.04162,0.0416 -0.08337,0.0834 -1.292283,1.41734 -0.04162,0.0834 -0.04162,0.0416 -0.500239,0.70867 -0.04162,0.0416 -0.04162,0.0834 -0.416866,0.70867 -0.04162,0.0416 -0.04162,0.0416 -0.333492,0.70867 -0.04162,0.0834 0,0.0416 -0.250119,0.70867 -0.04162,0.0834 -0.04162,0.0834 -0.124993,0.70867 -0.04162,0.0834 0,0.0834 -0.04162,0.54193 2.626253,0.25012 0.04162,-0.37518 0.04162,-0.16675 0.08337,-0.37518 0,-0.0416 0.04162,-0.12499 0.166746,-0.41687 0.04162,-0.12499 0.208433,-0.45855 0.08337,-0.12499 0.291806,-0.50024 0.08337,-0.0834 0.375179,-0.54192 0.08337,-0.0834 1.125537,-1.2506 1.542403,-1.41734 0.08337,-0.0416 1.792522,-1.37566 0.08337,-0.0416 2.126014,-1.41734 0.08337,-0.0416 1.792522,-1.04217 -1.333969,-2.29276 z"
       inkscape:connector-curvature="0" />
    <g
       style="filter:url(#filter5298)"
       transform="matrix(0.6470898,0,0,0.6470898,120.65492,70.24326)"
       id="g5264" />
    <path
       style="fill:#fe7110;fill-opacity:1;stroke:none"
       d="m 400.95831,153.52133 0,13.81199 -35.02329,0 c -5.10333,0.22392 -4.91748,11.05166 0,11.09893 l 18.25157,0 c 27.49496,3.7383 24.95146,37.23645 3.69965,37.73637 l -36.50314,0 0,-13.81201 33.05013,0 c 7.04456,0.13897 6.85694,-9.97418 0,-9.61906 l -21.21128,-0.24664 c -17.09869,0.21013 -24.5229,-36.42376 0.98657,-38.4763 z"
       id="path7621"
       inkscape:connector-curvature="0"
       sodipodi:nodetypes="ccccccccccccc" />
    <path
       style="fill:#fe7110;fill-opacity:1;stroke:#ffffff;stroke-width:0.66415721px;stroke-linecap:butt;stroke-linejoin:miter;stroke-opacity:0"
       d="m 293.62661,217.27769 8.83436,-14.17968 16.44001,0.78776 c 2.9659,-0.7799 5.4656,-1.87059 5.31738,-4.72656 l 0.34792,-44.18113 16.78588,-0.24664 -0.24664,50.33222 c 0.38847,6.20873 0.79177,12.33271 -9.50095,12.21403 z"
       id="path7673"
       inkscape:connector-curvature="0"
       sodipodi:nodetypes="ccccccccc" />
    <path
       sodipodi:type="star"
       style="color:#000000;fill:#333333;fill-opacity:1;fill-rule:nonzero;stroke:#ffffff;stroke-width:2;stroke-linecap:round;stroke-linejoin:round;stroke-miterlimit:4;stroke-opacity:0;stroke-dasharray:12, 4;stroke-dashoffset:0;marker:none;visibility:visible;display:inline;overflow:visible;enable-background:accumulate"
       id="path7878"
       sodipodi:sides="6"
       sodipodi:cx="156.34769"
       sodipodi:cy="202.51184"
       sodipodi:r1="60.673779"
       sodipodi:r2="52.545036"
       sodipodi:arg1="-0.52359878"
       sodipodi:arg2="0"
       inkscape:flatsided="true"
       inkscape:rounded="0"
       inkscape:randomized="0"
       d="m 208.89272,172.17495 0,60.67378 -52.54503,30.33689 -52.54504,-30.33689 0,-60.67378 52.54504,-30.33689 z"
       transform="matrix(1.3325718,0,0,1.3325718,313.7097,-101.01536)" />
    <g
       id="g7880"
       transform="matrix(0.58893211,0,0,0.58893211,339.90694,-79.486564)">
      <path
         transform="matrix(0.84074604,0,0,0.84074604,229.31262,-144.45475)"
         d="m 211.25764,658.03284 c 0,45.49091 -36.87767,82.36858 -82.36859,82.36858 -45.490909,0 -82.36858,-36.87767 -82.36858,-82.36858 0,-45.49092 36.877671,-82.36859 82.36858,-82.36859 45.49092,0 82.36859,36.87767 82.36859,82.36859 z"
         sodipodi:ry="82.368584"
         sodipodi:rx="82.368584"
         sodipodi:cy="658.03284"
         sodipodi:cx="128.88905"
         id="path7882"
         style="color:#000000;fill:#ffa158;fill-opacity:1;fill-rule:nonzero;stroke:none;stroke-width:1;marker:none;visibility:visible;display:inline;overflow:visible;enable-background:accumulate"
         sodipodi:type="arc" />
      <path
         inkscape:connector-curvature="0"
         id="path7884"
         d="m 271.62336,429.57575 c 3.08155,9.79523 8.27384,18.65618 15.05461,26.03685 l 101.993,0 c 6.78077,-7.38067 11.97306,-16.24162 15.05461,-26.03685 l -132.10222,0 z"
         style="color:#000000;fill:#ffcba2;fill-opacity:1;fill-rule:nonzero;stroke:#ffffff;stroke-width:0.84074605;stroke-linecap:round;stroke-linejoin:round;stroke-miterlimit:4;stroke-opacity:0;stroke-dasharray:none;stroke-dashoffset:0;marker:none;visibility:visible;display:inline;overflow:visible;enable-background:accumulate" />
      <path
         id="path7886"
         d="m 269.90203,423.0751 c 1.12236,5.34582 2.87196,10.47677 5.14957,15.29107 l 125.24489,0 c 2.2776,-4.8143 4.02721,-9.94525 5.14957,-15.29107 l -135.54403,0 z"
         style="fill:#fe5210;fill-opacity:1;stroke:#ffffff;stroke-width:0.84074605px;stroke-linecap:butt;stroke-linejoin:miter;stroke-opacity:0"
         inkscape:connector-curvature="0" />
      <path
         sodipodi:type="arc"
         style="color:#000000;fill:#ffcba2;fill-opacity:1;fill-rule:nonzero;stroke:#ffffff;stroke-width:1;stroke-linecap:round;stroke-linejoin:round;stroke-miterlimit:4;stroke-opacity:0;stroke-dasharray:none;stroke-dashoffset:0;marker:none;visibility:visible;display:inline;overflow:visible;enable-background:accumulate"
         id="path7888"
         sodipodi:cx="339.59183"
         sodipodi:cy="675.81189"
         sodipodi:rx="23.129307"
         sodipodi:ry="13.532904"
         d="m 362.72113,675.81189 c 0,7.47402 -10.35534,13.5329 -23.1293,13.5329 -12.77397,0 -23.12931,-6.05888 -23.12931,-13.5329 0,-7.47402 10.35534,-13.5329 23.12931,-13.5329 12.77396,0 23.1293,6.05888 23.1293,13.5329 z"
         transform="matrix(0.83812389,-0.06634952,0.06634952,0.83812389,36.242635,-103.88251)" />
      <path
         transform="matrix(0.83812389,-0.06634952,0.06634952,0.83812389,36.568004,-103.88251)"
         d="m 356.42629,675.81189 c 0,5.34334 -7.53704,9.67498 -16.83446,9.67498 -9.29742,0 -16.83447,-4.33164 -16.83447,-9.67498 0,-5.34334 7.53705,-9.67498 16.83447,-9.67498 9.29742,0 16.83446,4.33164 16.83446,9.67498 z"
         sodipodi:ry="9.6749811"
         sodipodi:rx="16.834467"
         sodipodi:cy="675.81189"
         sodipodi:cx="339.59183"
         id="path7890"
         style="color:#000000;fill:#fe5210;fill-opacity:1;fill-rule:nonzero;stroke:#ffffff;stroke-width:1;stroke-linecap:round;stroke-linejoin:round;stroke-miterlimit:4;stroke-opacity:0;stroke-dasharray:none;stroke-dashoffset:0;marker:none;visibility:visible;display:inline;overflow:visible;enable-background:accumulate"
         sodipodi:type="arc" />
      <path
         id="path7892"
         d="m 282.59204,450.7409 c 3.51331,4.60478 7.59969,8.754 12.13827,12.34845 l 85.88747,0 c 4.54133,-3.5957 8.62318,-7.74135 12.13827,-12.34845 l -110.16401,0 z"
         style="color:#000000;fill:#fe7110;fill-opacity:1;fill-rule:nonzero;stroke:#ffffff;stroke-width:0.84074605;stroke-linecap:round;stroke-linejoin:round;stroke-miterlimit:4;stroke-opacity:0;stroke-dasharray:none;stroke-dashoffset:0;marker:none;visibility:visible;display:inline;overflow:visible;enable-background:accumulate"
         inkscape:connector-curvature="0" />
      <path
         inkscape:connector-curvature="0"
         id="path7894"
         d="m 286.70424,361.89569 c -9.05314,9.83808 -15.29034,22.3067 -17.44548,36.12581 l 136.83142,0 c -2.15514,-13.81911 -8.39234,-26.28773 -17.44548,-36.12581 l -101.94046,0 z"
         style="color:#000000;fill:#ffcba2;fill-opacity:1;fill-rule:nonzero;stroke:#ffffff;stroke-width:0.84074605;stroke-linecap:round;stroke-linejoin:round;stroke-miterlimit:4;stroke-opacity:0;stroke-dasharray:none;stroke-dashoffset:0;marker:none;visibility:visible;display:inline;overflow:visible;enable-background:accumulate" />
      <path
         id="path7896"
         d="m 270.34868,392.49296 c -1.08805,4.5125 -1.70951,9.19499 -1.86541,14.00368 l 138.38155,0 c -0.15591,-4.80869 -0.77737,-9.49118 -1.86541,-14.00368 l -134.65073,0 z"
         style="color:#000000;fill:#fe7110;fill-opacity:1;fill-rule:nonzero;stroke:#ffffff;stroke-width:0.84074605;stroke-linecap:round;stroke-linejoin:round;stroke-miterlimit:4;stroke-opacity:0;stroke-dasharray:none;stroke-dashoffset:0;marker:none;visibility:visible;display:inline;overflow:visible;enable-background:accumulate"
         inkscape:connector-curvature="0" />
      <path
         id="path7898"
         d="m 337.68718,339.52596 c -23.0345,0 -43.45113,11.25789 -56.04098,28.55909 l 112.05569,0 c -12.58985,-17.3012 -32.98021,-28.55909 -56.01471,-28.55909 z"
         style="color:#000000;fill:#fe5210;fill-opacity:1;fill-rule:nonzero;stroke:#ffffff;stroke-width:0.84074605;stroke-linecap:round;stroke-linejoin:round;stroke-miterlimit:4;stroke-opacity:0;stroke-dasharray:none;stroke-dashoffset:0;marker:none;visibility:visible;display:inline;overflow:visible;enable-background:accumulate"
         inkscape:connector-curvature="0" />
    </g>
    <path
       sodipodi:type="arc"
       style="color:#000000;fill:#333333;fill-opacity:1;fill-rule:nonzero;stroke:#ffffff;stroke-width:1;stroke-linecap:round;stroke-linejoin:round;stroke-miterlimit:4;stroke-opacity:0;stroke-dasharray:none;stroke-dashoffset:0;marker:none;visibility:visible;display:inline;overflow:visible;enable-background:accumulate"
       id="path7900"
       sodipodi:cx="91.331825"
       sodipodi:cy="717.99481"
       sodipodi:rx="10.061981"
       sodipodi:ry="10.061981"
       d="m 101.39381,717.99481 a 10.061981,10.061981 0 1 1 -20.123966,0 10.061981,10.061981 0 1 1 20.123966,0 z"
       transform="matrix(0.5421269,0,0,0.5421269,471.75255,-235.41466)" />
    <path
       id="path7902"
       style="font-size:medium;font-style:normal;font-variant:normal;font-weight:normal;font-stretch:normal;text-indent:0;text-align:start;text-decoration:none;line-height:normal;letter-spacing:normal;word-spacing:normal;text-transform:none;direction:ltr;block-progression:tb;writing-mode:lr-tb;text-anchor:start;baseline-shift:baseline;color:#000000;fill:#ffcba2;fill-opacity:1;stroke:none;stroke-width:2;marker:none;visibility:visible;display:inline;overflow:visible;enable-background:accumulate;font-family:Sans;-inkscape-font-specification:Sans"
       d="m 461.44124,174.64657 -0.92692,0.90676 0.0402,0.0402 0.0201,0.0201 0.0201,0.0201 0.36272,0.30226 0.0201,0.0201 0.0201,0.0201 0.40301,0.28212 0,0.0201 0.0201,0.0201 0.46345,0.28211 0.0201,0.0201 0.0201,0.0201 1.06797,0.56421 0.0201,0.0201 0.0402,0 1.26949,0.56422 0.0201,0 0.0201,0.0201 1.51129,0.52392 0.0201,0 1.73293,0.50375 0.0201,0.0201 0.0201,0 0.14106,0.0402 0.3224,-1.24932 -0.14105,-0.0403 -0.0201,0 -1.6725,-0.48361 0,-0.0201 -1.45084,-0.50376 -0.0402,-0.0201 -1.20902,-0.50376 -0.0201,-0.0201 -0.0201,0 -0.96723,-0.52392 -0.0603,-0.0402 -0.36271,-0.2418 -0.0403,-0.0201 -0.32239,-0.24182 -0.0402,-0.0402 -0.28209,-0.24181 -0.0402,-0.0201 0,-0.0201 z m 9.16848,3.56665 -0.26196,1.24932 1.49114,0.30226 0.0201,0.0201 2.43821,0.42316 0.0201,0 2.68002,0.403 0.0201,0 1.00754,0.12091 0.1612,-1.28964 -1.00753,-0.12089 -2.65986,-0.38287 -0.0201,0 -2.39791,-0.42316 -0.0201,0 -1.47099,-0.30226 z m 10.1357,1.55158 -0.14105,1.26948 2.55913,0.26196 3.46588,0.30225 1.7128,0.12092 0.0806,-1.28965 -1.69265,-0.10065 -3.44573,-0.30225 -2.53898,-0.26198 z m 10.25661,0.84632 -0.0806,1.28964 3.44571,0.2015 0.0201,0 4.27191,0.18135 0.0603,-1.28963 -4.27184,-0.18135 -0.0201,0 -3.42559,-0.20151 z"
       inkscape:connector-curvature="0" />
    <rect
       style="color:#000000;fill:#fe5210;fill-opacity:1;fill-rule:nonzero;stroke:#ffffff;stroke-width:1.69107306;stroke-linecap:round;stroke-linejoin:round;stroke-miterlimit:4;stroke-opacity:0;stroke-dasharray:10.14643895, 3.38214632;stroke-dashoffset:0;marker:none;visibility:visible;display:inline;overflow:visible;enable-background:accumulate"
       id="rect7904"
       width="20.044237"
       height="77.753784"
       x="469.38016"
       y="122.62168"
       ry="7.4110627" />
    <path
       inkscape:connector-curvature="0"
       id="path7906"
       style="font-size:medium;font-style:normal;font-variant:normal;font-weight:normal;font-stretch:normal;text-indent:0;text-align:start;text-decoration:none;line-height:normal;letter-spacing:normal;word-spacing:normal;text-transform:none;direction:ltr;block-progression:tb;writing-mode:lr-tb;text-anchor:start;baseline-shift:baseline;color:#000000;fill:#333333;fill-opacity:1;stroke:none;stroke-width:2;marker:none;visibility:visible;display:inline;overflow:visible;enable-background:accumulate;font-family:Sans;-inkscape-font-specification:Sans"
       d="m 498.00742,157.67635 0.3114,-0.0622 5.79208,-1.15219 0.56053,-0.12456 -0.21798,-1.24562 -0.59168,0.0934 -5.79207,1.15219 -0.0622,0 0,1.33903 z m 57.82738,-7.69165 -1.71271,0.0312 -3.08287,0.0312 -0.0312,0 -2.92717,0.0934 0.0312,1.30787 2.92718,-0.12454 3.11401,-0.0312 1.68158,-0.0312 0,-1.27675 z m 2.58463,0.0312 0,1.27675 1.80613,0.0312 0.0312,0 2.95832,0.0623 0.0312,0 2.8649,0.12456 0.0622,-1.27676 -2.89604,-0.12455 -2.98946,-0.0934 -0.0312,0 -1.83725,0 z m -12.92319,0.21799 -0.7785,0.0622 -3.20743,0.15571 -3.17631,0.21797 -0.0312,0 -0.56051,0.0622 0.12456,1.27676 0.56052,-0.0622 3.17632,-0.18684 3.14514,-0.18685 0.0312,0 0.77851,-0.0312 -0.0622,-1.30789 z m -10.36969,0.68509 -3.20743,0.28026 -3.20745,0.34253 -1.2456,0.12456 0.12456,1.30789 1.24562,-0.15569 3.20744,-0.3114 3.17629,-0.28028 0.0622,0 -0.12456,-1.30787 -0.0312,0 z m -20.49026,2.46007 -4.76446,0.74737 -2.8649,0.49825 0.21799,1.27673 2.8649,-0.52938 4.76445,-0.74735 -0.21798,-1.24562 z m 10.23876,-1.40175 -2.53897,0.30225 -5.13839,0.70527 0.18137,1.26948 5.11822,-0.68511 0.0201,0 2.51883,-0.32241 -0.16122,-1.26948 z" />
    <path
       inkscape:connector-curvature="0"
       id="path7908"
       style="font-size:medium;font-style:normal;font-variant:normal;font-weight:normal;font-stretch:normal;text-indent:0;text-align:start;text-decoration:none;line-height:normal;letter-spacing:normal;word-spacing:normal;text-transform:none;direction:ltr;block-progression:tb;writing-mode:lr-tb;text-anchor:start;baseline-shift:baseline;color:#000000;fill:#ffcba2;fill-opacity:1;stroke:none;stroke-width:2;marker:none;visibility:visible;display:inline;overflow:visible;enable-background:accumulate;font-family:Sans;-inkscape-font-specification:Sans"
       d="m 498.00742,157.67635 0,-1.33905 -1.15218,0.28028 0.28026,1.2456 0.87192,-0.18683 z m -3.67455,-0.49825 -1.83726,0.40483 -2.67806,0.65395 -2.61579,0.6228 -0.43596,0.12455 0.34255,1.2456 0.43596,-0.12455 2.58464,-0.62281 2.64692,-0.65394 0.0312,0 1.80612,-0.40483 -0.28026,-1.2456 z m -10.05829,2.49122 -1.99296,0.56051 -2.33554,0.6851 -2.24209,0.71623 -0.87191,0.28027 0.40483,1.21446 0.84077,-0.28026 0.0312,0 2.17981,-0.6851 0.0312,0 2.30438,-0.68508 1.99299,-0.56052 -0.34256,-1.24561 z m -9.87145,3.08288 -0.84076,0.31141 -0.0312,0 -1.89956,0.71622 -1.77497,0.71622 -0.0312,0 -1.65042,0.74737 -0.0312,0 -0.96534,0.46711 0.56052,1.15219 0.96536,-0.46711 0,0.0312 1.61928,-0.71623 0.0312,0 1.71272,-0.74736 0.0312,0 1.8684,-0.68509 0.0312,0 0.80966,-0.3114 -0.40484,-1.21447 z m -9.56003,4.17279 -0.90307,0.52939 -0.0312,0 0,0.0312 -1.08991,0.68508 -0.0312,0.0312 -0.0312,0.0312 -0.93421,0.6851 -0.0312,0.0312 -0.77849,0.71623 -0.0312,0.0312 -0.0312,0.0312 -0.62281,0.6851 -0.0312,0.0312 -0.0312,0.0312 -0.24911,0.34253 0,0.0312 -0.0312,0.0312 -0.18684,0.34253 -0.0312,0.0312 -0.0312,0 -0.15572,0.34255 0,0.0622 -0.12455,0.34256 -0.0312,0.0312 -0.0312,0.0622 -0.0622,0.34255 0,0.0312 0,0.0312 -0.0312,0.28024 1.27675,0.12457 0.0312,-0.18684 0,-0.0934 0.0622,-0.18686 0,-0.0622 0.0934,-0.21798 0,-0.0622 0.12456,-0.21799 0.0312,-0.0622 0.12455,-0.21797 0.0622,-0.0622 0.18684,-0.24912 0.0312,-0.0312 0.52939,-0.6228 0.74736,-0.68509 0.0622,0 0.84079,-0.68508 0.0622,0 1.02762,-0.68508 0.0312,-0.0312 0.87192,-0.49824 -0.65395,-1.12104 z" />
    <path
       style="fill:#fe7110;fill-opacity:1;stroke:none"
       d="m 546.6367,206.07559 0,5.78611 -14.67193,0 c -2.13787,0.0939 -2.06004,4.62975 0,4.64956 l 7.64593,0 c 11.51818,1.56602 10.45266,15.59906 1.54987,15.80851 l -15.29188,0 0,-5.78614 13.84534,0 c 2.95111,0.0582 2.8725,-4.17837 0,-4.0296 l -8.88582,-0.10323 c -7.16297,0.0882 -10.27312,-15.25865 0.4133,-16.11848 z"
       id="path7910"
       inkscape:connector-curvature="0"
       sodipodi:nodetypes="ccccccccccccc" />
    <path
       style="fill:#fe7110;fill-opacity:1;stroke:#ffffff;stroke-width:0.27822843px;stroke-linecap:butt;stroke-linejoin:miter;stroke-opacity:0"
       d="m 501.67337,232.78437 3.70087,-5.94016 6.88702,0.33002 c 1.2425,-0.3267 2.28968,-0.78362 2.22757,-1.98006 l 0.14575,-18.50833 7.03195,-0.10345 -0.10323,21.08516 c 0.16275,2.60095 0.3317,5.1664 -3.98013,5.11669 z"
       id="path7912"
       inkscape:connector-curvature="0"
       sodipodi:nodetypes="ccccccccc" />
  </g>
</svg>
