<?xml version="1.0" encoding="UTF-8" standalone="no"?>
<!-- Created with Inkscape (http://www.inkscape.org/) -->

<svg
   xmlns:dc="http://purl.org/dc/elements/1.1/"
   xmlns:cc="http://creativecommons.org/ns#"
   xmlns:rdf="http://www.w3.org/1999/02/22-rdf-syntax-ns#"
   xmlns:svg="http://www.w3.org/2000/svg"
   xmlns="http://www.w3.org/2000/svg"
   xmlns:sodipodi="http://sodipodi.sourceforge.net/DTD/sodipodi-0.dtd"
   xmlns:inkscape="http://www.inkscape.org/namespaces/inkscape"
   width="570.81079"
   height="241.8584"
   id="svg6259"
   version="1.1"
   inkscape:version="0.48.2 r9819"
   sodipodi:docname="iojs_jupiter_technicolor.svg">
  <defs
     id="defs6261">
    <filter
       id="filter6096"
       inkscape:label="Desaturate"
       x="0"
       y="0"
       width="1"
       height="1"
       inkscape:menu="Color"
       inkscape:menu-tooltip="Render in shades of gray by reducing saturation to zero"
       color-interpolation-filters="sRGB">
      <feColorMatrix
         id="feColorMatrix6098"
         type="saturate"
         values="0" />
    </filter>
    <filter
       id="filter6092"
       inkscape:label="Desaturate"
       x="0"
       y="0"
       width="1"
       height="1"
       inkscape:menu="Color"
       inkscape:menu-tooltip="Render in shades of gray by reducing saturation to zero"
       color-interpolation-filters="sRGB">
      <feColorMatrix
         id="feColorMatrix6094"
         type="saturate"
         values="0" />
    </filter>
    <filter
       id="filter5491"
       inkscape:label="Duotone"
       inkscape:menu="Color"
       inkscape:menu-tooltip="Change colors to a duotone palette"
       height="1"
       width="1"
       y="0"
       x="0"
       color-interpolation-filters="sRGB">
      <feColorMatrix
         id="feColorMatrix5493"
         type="saturate"
         values="0"
         result="result1" />
      <feFlood
         id="feFlood5495"
         flood-color="rgb(9,111,152)"
         result="result2" />
      <feBlend
         id="feBlend5497"
         in2="result1"
         mode="screen"
         result="result2" />
      <feComposite
         id="feComposite5499"
         in2="SourceGraphic"
         operator="in"
         in="result2" />
    </filter>
    <filter
       id="filter5481"
       inkscape:label="Duotone"
       inkscape:menu="Color"
       inkscape:menu-tooltip="Change colors to a duotone palette"
       height="1"
       width="1"
       y="0"
       x="0"
       color-interpolation-filters="sRGB">
      <feColorMatrix
         id="feColorMatrix5483"
         type="saturate"
         values="0"
         result="result1" />
      <feFlood
         id="feFlood5485"
         flood-color="rgb(9,111,152)"
         result="result2" />
      <feBlend
         id="feBlend5487"
         in2="result1"
         mode="screen"
         result="result2" />
      <feComposite
         id="feComposite5489"
         in2="SourceGraphic"
         operator="in"
         in="result2" />
    </filter>
    <filter
       id="filter5471"
       inkscape:label="Duotone"
       inkscape:menu="Color"
       inkscape:menu-tooltip="Change colors to a duotone palette"
       height="1"
       width="1"
       y="0"
       x="0"
       color-interpolation-filters="sRGB">
      <feColorMatrix
         id="feColorMatrix5473"
         type="saturate"
         values="0"
         result="result1" />
      <feFlood
         id="feFlood5475"
         flood-color="rgb(9,111,152)"
         result="result2" />
      <feBlend
         id="feBlend5477"
         in2="result1"
         mode="screen"
         result="result2" />
      <feComposite
         id="feComposite5479"
         in2="SourceGraphic"
         operator="in"
         in="result2" />
    </filter>
    <filter
       id="filter5461"
       inkscape:label="Duotone"
       inkscape:menu="Color"
       inkscape:menu-tooltip="Change colors to a duotone palette"
       height="1"
       width="1"
       y="0"
       x="0"
       color-interpolation-filters="sRGB">
      <feColorMatrix
         id="feColorMatrix5463"
         type="saturate"
         values="0"
         result="result1" />
      <feFlood
         id="feFlood5465"
         flood-color="rgb(9,111,152)"
         result="result2" />
      <feBlend
         id="feBlend5467"
         in2="result1"
         mode="screen"
         result="result2" />
      <feComposite
         id="feComposite5469"
         in2="SourceGraphic"
         operator="in"
         in="result2" />
    </filter>
    <filter
       id="filter5451"
       inkscape:label="Duotone"
       inkscape:menu="Color"
       inkscape:menu-tooltip="Change colors to a duotone palette"
       height="1"
       width="1"
       y="0"
       x="0"
       color-interpolation-filters="sRGB">
      <feColorMatrix
         id="feColorMatrix5453"
         type="saturate"
         values="0"
         result="result1" />
      <feFlood
         id="feFlood5455"
         flood-color="rgb(9,111,152)"
         result="result2" />
      <feBlend
         id="feBlend5457"
         in2="result1"
         mode="screen"
         result="result2" />
      <feComposite
         id="feComposite5459"
         in2="SourceGraphic"
         operator="in"
         in="result2" />
    </filter>
    <filter
       id="filter5441"
       inkscape:label="Duotone"
       inkscape:menu="Color"
       inkscape:menu-tooltip="Change colors to a duotone palette"
       height="1"
       width="1"
       y="0"
       x="0"
       color-interpolation-filters="sRGB">
      <feColorMatrix
         id="feColorMatrix5443"
         type="saturate"
         values="0"
         result="result1" />
      <feFlood
         id="feFlood5445"
         flood-color="rgb(9,111,152)"
         result="result2" />
      <feBlend
         id="feBlend5447"
         in2="result1"
         mode="screen"
         result="result2" />
      <feComposite
         id="feComposite5449"
         in2="SourceGraphic"
         operator="in"
         in="result2" />
    </filter>
  </defs>
  <sodipodi:namedview
     id="base"
     pagecolor="#ffffff"
     bordercolor="#666666"
     borderopacity="1.0"
     inkscape:pageopacity="0.0"
     inkscape:pageshadow="2"
     inkscape:zoom="0.64599609"
     inkscape:cx="431.86213"
     inkscape:cy="166.1143"
     inkscape:document-units="px"
     inkscape:current-layer="layer1"
     showgrid="false"
     inkscape:window-width="1918"
     inkscape:window-height="1078"
     inkscape:window-x="0"
     inkscape:window-y="0"
     inkscape:window-maximized="0"
     fit-margin-top="5"
     fit-margin-left="5"
     fit-margin-right="5"
     fit-margin-bottom="5" />
  <metadata
     id="metadata6264">
    <rdf:RDF>
      <cc:Work
         rdf:about="">
        <dc:format>image/svg+xml</dc:format>
        <dc:type
           rdf:resource="http://purl.org/dc/dcmitype/StillImage" />
        <dc:title></dc:title>
      </cc:Work>
    </rdf:RDF>
  </metadata>
  <g
     inkscape:label="Layer 1"
     inkscape:groupmode="layer"
     id="layer1"
     transform="translate(-109.3692,-318.95162)">
    <g
       id="g7110"
       transform="matrix(1.3208382,0,0,1.3208382,-36.694006,-103.93605)">
      <path
         transform="matrix(1.0243302,0,0,1.0243302,146.74628,-265.19828)"
         d="m 211.25764,658.03284 c 0,45.49091 -36.87767,82.36858 -82.36859,82.36858 -45.490909,0 -82.36858,-36.87767 -82.36858,-82.36858 0,-45.49092 36.877671,-82.36859 82.36858,-82.36859 45.49092,0 82.36859,36.87767 82.36859,82.36859 z"
         sodipodi:ry="82.368584"
         sodipodi:rx="82.368584"
         sodipodi:cy="658.03284"
         sodipodi:cx="128.88905"
         id="path3234"
         style="color:#000000;fill:#ba5ef7;fill-opacity:1;fill-rule:nonzero;stroke:none;stroke-width:1;marker:none;visibility:visible;display:inline;overflow:visible;enable-background:accumulate"
         sodipodi:type="arc" />
      <path
         inkscape:connector-curvature="0"
         id="rect4582"
         d="m 198.29594,434.17671 c 3.75443,11.93411 10.0805,22.72992 18.34191,31.72222 l 124.26405,0 c 8.26141,-8.9923 14.58748,-19.78811 18.34191,-31.72222 l -160.94787,0 z"
         style="color:#000000;fill:#77ff6d;fill-opacity:1;fill-rule:nonzero;stroke:#ffffff;stroke-width:1.02433014;stroke-linecap:round;stroke-linejoin:round;stroke-miterlimit:4;stroke-opacity:0;stroke-dasharray:none;stroke-dashoffset:0;marker:none;visibility:visible;display:inline;overflow:visible;enable-background:accumulate" />
      <path
         id="path4447"
         d="m 196.19874,426.25659 c 1.36744,6.51313 3.49908,12.76446 6.27402,18.63001 l 152.59319,0 c 2.77493,-5.86555 4.90659,-12.11688 6.27402,-18.63001 l -165.14123,0 z"
         style="fill:#ff64b0;fill-opacity:1;stroke:#ffffff;stroke-width:1.02433014px;stroke-linecap:butt;stroke-linejoin:miter;stroke-opacity:0"
         inkscape:connector-curvature="0" />
      <path
         sodipodi:type="arc"
         style="color:#000000;fill:#77ff6d;fill-opacity:1;fill-rule:nonzero;stroke:#ffffff;stroke-width:1;stroke-linecap:round;stroke-linejoin:round;stroke-miterlimit:4;stroke-opacity:0;stroke-dasharray:none;stroke-dashoffset:0;marker:none;visibility:visible;display:inline;overflow:visible;enable-background:accumulate"
         id="path4388"
         sodipodi:cx="339.59183"
         sodipodi:cy="675.81189"
         sodipodi:rx="23.129307"
         sodipodi:ry="13.532904"
         d="m 362.72113,675.81189 c 0,7.47402 -10.35534,13.5329 -23.1293,13.5329 -12.77397,0 -23.12931,-6.05888 -23.12931,-13.5329 0,-7.47402 10.35534,-13.5329 23.12931,-13.5329 12.77396,0 23.1293,6.05888 23.1293,13.5329 z"
         transform="matrix(1.0211354,-0.08083751,0.08083751,1.0211354,-88.482194,-215.76674)" />
      <path
         transform="matrix(1.0211354,-0.08083751,0.08083751,1.0211354,-88.085778,-215.76674)"
         d="m 356.42629,675.81189 c 0,5.34334 -7.53704,9.67498 -16.83446,9.67498 -9.29742,0 -16.83447,-4.33164 -16.83447,-9.67498 0,-5.34334 7.53705,-9.67498 16.83447,-9.67498 9.29742,0 16.83446,4.33164 16.83446,9.67498 z"
         sodipodi:ry="9.6749811"
         sodipodi:rx="16.834467"
         sodipodi:cy="675.81189"
         sodipodi:cx="339.59183"
         id="path4386"
         style="color:#000000;fill:#ff64b0;fill-opacity:1;fill-rule:nonzero;stroke:#ffffff;stroke-width:1;stroke-linecap:round;stroke-linejoin:round;stroke-miterlimit:4;stroke-opacity:0;stroke-dasharray:none;stroke-dashoffset:0;marker:none;visibility:visible;display:inline;overflow:visible;enable-background:accumulate"
         sodipodi:type="arc" />
      <path
         id="rect4463"
         d="m 211.65972,459.96346 c 4.28047,5.61027 9.25915,10.66551 14.78877,15.04484 l 104.64174,0 c 5.53296,-4.38085 10.50612,-9.43174 14.78876,-15.04484 l -134.21927,0 z"
         style="color:#000000;fill:#40d4ff;fill-opacity:1;fill-rule:nonzero;stroke:#ffffff;stroke-width:1.02433014;stroke-linecap:round;stroke-linejoin:round;stroke-miterlimit:4;stroke-opacity:0;stroke-dasharray:none;stroke-dashoffset:0;marker:none;visibility:visible;display:inline;overflow:visible;enable-background:accumulate"
         inkscape:connector-curvature="0" />
      <path
         inkscape:connector-curvature="0"
         id="rect4532"
         d="m 216.66986,351.71813 c -11.02997,11.98631 -18.62912,27.17756 -21.25485,44.01419 l 166.70973,0 c -2.62573,-16.83663 -10.22488,-32.02788 -21.25485,-44.01419 l -124.20003,0 z"
         style="color:#000000;fill:#77ff6d;fill-opacity:1;fill-rule:nonzero;stroke:#ffffff;stroke-width:1.02433014;stroke-linecap:round;stroke-linejoin:round;stroke-miterlimit:4;stroke-opacity:0;stroke-dasharray:none;stroke-dashoffset:0;marker:none;visibility:visible;display:inline;overflow:visible;enable-background:accumulate" />
      <path
         id="rect4490"
         d="m 196.74292,388.99658 c -1.32564,5.49784 -2.0828,11.20279 -2.27274,17.0615 l 168.59835,0 c -0.18995,-5.85871 -0.94711,-11.56366 -2.27274,-17.0615 l -164.05287,0 z"
         style="color:#000000;fill:#40d4ff;fill-opacity:1;fill-rule:nonzero;stroke:#ffffff;stroke-width:1.02433014;stroke-linecap:round;stroke-linejoin:round;stroke-miterlimit:4;stroke-opacity:0;stroke-dasharray:none;stroke-dashoffset:0;marker:none;visibility:visible;display:inline;overflow:visible;enable-background:accumulate"
         inkscape:connector-curvature="0" />
      <path
         id="rect4506"
         d="m 278.78536,324.46378 c -28.06428,0 -52.93906,13.71615 -68.27801,34.79521 l 136.52401,0 c -15.33895,-21.07906 -40.18172,-34.79521 -68.246,-34.79521 z"
         style="color:#000000;fill:#ff64b0;fill-opacity:1;fill-rule:nonzero;stroke:#ffffff;stroke-width:1.02433014;stroke-linecap:round;stroke-linejoin:round;stroke-miterlimit:4;stroke-opacity:0;stroke-dasharray:none;stroke-dashoffset:0;marker:none;visibility:visible;display:inline;overflow:visible;enable-background:accumulate"
         inkscape:connector-curvature="0" />
      <path
         transform="matrix(1.1215299,0,0,1.1215299,140.1181,-411.77831)"
         d="m 101.39381,717.99481 c 0,5.55708 -4.504906,10.06198 -10.061985,10.06198 -5.557079,0 -10.061981,-4.5049 -10.061981,-10.06198 0,-5.55708 4.504902,-10.06198 10.061981,-10.06198 5.557079,0 10.061985,4.5049 10.061985,10.06198 z"
         sodipodi:ry="10.061981"
         sodipodi:rx="10.061981"
         sodipodi:cy="717.99481"
         sodipodi:cx="91.331825"
         id="path4281"
         style="color:#000000;fill:#ff64b0;fill-opacity:1;fill-rule:nonzero;stroke:#ffffff;stroke-width:1;stroke-linecap:round;stroke-linejoin:round;stroke-miterlimit:4;stroke-opacity:0;stroke-dasharray:none;stroke-dashoffset:0;marker:none;visibility:visible;display:inline;overflow:visible;enable-background:accumulate"
         sodipodi:type="arc" />
      <path
         inkscape:connector-curvature="0"
         d="m 118.78646,436.53959 -1.91758,1.87589 0.0834,0.0834 0.0416,0.0416 0.0416,0.0416 0.75036,0.6253 0.0416,0.0416 0.0416,0.0416 0.83373,0.58362 0,0.0416 0.0416,0.0416 0.95879,0.58361 0.0416,0.0416 0.0416,0.0416 2.20939,1.16722 0.0416,0.0416 0.0834,0 2.62625,1.16723 0.0416,0 0.0416,0.0416 3.12649,1.08386 0.0416,0 3.58505,1.04216 0.0416,0.0416 0.0416,0 0.2918,0.0834 0.66699,-2.58456 -0.29181,-0.0834 -0.0416,0 -3.45998,-1.00047 0,-0.0416 -3.00144,-1.04217 -0.0834,-0.0416 -2.50119,-1.04216 -0.0416,-0.0416 -0.0416,0 -2.00095,-1.08385 -0.125,-0.0834 -0.75036,-0.50023 -0.0834,-0.0416 -0.66698,-0.50024 -0.0834,-0.0834 -0.58361,-0.50024 -0.0834,-0.0416 0,-0.0416 z m 18.96739,7.37852 -0.54193,2.58457 3.08481,0.62529 0.0416,0.0416 5.04407,0.87542 0.0416,0 5.54431,0.83373 0.0416,0 2.08433,0.25012 0.33349,-2.66794 -2.08432,-0.25012 -5.50263,-0.79204 -0.0416,0 -4.9607,-0.87542 -0.0416,0 -3.04312,-0.6253 z m 20.96834,3.20986 -0.29181,2.62626 5.29419,0.54192 7.1701,0.6253 3.54335,0.25012 0.16675,-2.66794 -3.50167,-0.20843 -7.12841,-0.6253 -5.2525,-0.54193 z m 21.21845,1.75084 -0.16675,2.66794 7.1284,0.41687 0.0416,0 8.83756,0.37517 0.12499,-2.66794 -8.83742,-0.37517 -0.0416,0 -7.08671,-0.41687 z"
         style="font-size:medium;font-style:normal;font-variant:normal;font-weight:normal;font-stretch:normal;text-indent:0;text-align:start;text-decoration:none;line-height:normal;letter-spacing:normal;word-spacing:normal;text-transform:none;direction:ltr;block-progression:tb;writing-mode:lr-tb;text-anchor:start;baseline-shift:baseline;color:#000000;fill:#ff64b0;fill-opacity:1;stroke:none;stroke-width:2;marker:none;visibility:visible;display:inline;overflow:visible;enable-background:accumulate;font-family:Sans;-inkscape-font-specification:Sans"
         id="path4823" />
      <rect
         ry="15.331704"
         y="336.88739"
         x="135.21019"
         height="160.85385"
         width="41.466698"
         id="rect4589"
         style="color:#000000;fill:#ff64b0;fill-opacity:1;fill-rule:nonzero;stroke:#ffffff;stroke-width:3.49842286;stroke-linecap:round;stroke-linejoin:round;stroke-miterlimit:4;stroke-opacity:0;stroke-dasharray:20.99053734, 6.99684578;stroke-dashoffset:0;marker:none;visibility:visible;display:inline;overflow:visible;enable-background:accumulate" />
      <path
         d="m 314.04628,385.51524 -3.50167,0.0416 -6.41973,0.0834 -0.0416,0 -6.08623,0.20844 0.0834,2.66794 6.08624,-0.20844 6.41973,-0.0834 3.45998,-0.0416 0,-2.66794 z m 5.37757,0.0416 -0.0416,2.66794 3.79348,0.0416 0.0416,0 6.12792,0.16675 0.0416,0 5.96118,0.25011 0.0834,-2.66794 -5.96118,-0.25011 -0.0416,0 -6.16961,-0.16675 -0.0416,0 -3.79347,-0.0416 z m -26.76277,0.50024 -1.62578,0.0834 -6.58647,0.37518 -6.58648,0.41687 -0.0416,0 -1.16722,0.12499 0.20843,2.62625 1.16722,-0.0834 6.58648,-0.41687 6.54479,-0.37518 0.0416,0 1.58409,-0.0834 -0.12499,-2.66794 z m -21.46858,1.41734 -6.58648,0.58361 -0.0416,0 -6.58647,0.66699 -0.0416,0 -2.58457,0.2918 0.29181,2.66794 2.58456,-0.2918 6.58648,-0.66699 0.0416,0 6.58648,-0.58361 0.0834,0 -0.20843,-2.66794 -0.0834,0 -0.0416,0 z m -42.35353,5.04407 -9.83802,1.54241 -0.0416,0 -5.9195,1.08385 0.45856,2.62625 5.91948,-1.08385 9.83803,-1.5424 -0.41686,-2.62626 z m -21.0934,3.54336 -1.20891,0.20844 -12.00572,2.41782 -2.5012,0.54192 0.58361,2.58457 2.45951,-0.54193 11.96404,-2.37613 1.20891,-0.20843 -0.50024,-2.62626 z m -20.92665,4.3354 -3.79348,0.83374 -5.5443,1.33397 -5.37756,1.33397 -0.91711,0.25012 0.70867,2.58456 0.87542,-0.25012 5.33588,-1.33397 0.0416,0 5.46093,-1.33397 0.0416,0 3.75179,-0.83373 -0.58361,-2.58457 z m -20.80159,5.16914 -4.12697,1.12554 0,0.0416 -4.83564,1.41734 -4.6272,1.45903 -1.79253,0.58361 0.83373,2.54288 1.75084,-0.58361 0.0416,0 4.54384,-1.45903 0.0416,0 4.75226,-1.41734 0.0416,0 4.08528,-1.16723 -0.70867,-2.54288 z m -20.42641,6.37804 -1.75084,0.6253 -0.0416,0 -3.91853,1.50072 -0.0416,0 -3.66842,1.50071 -0.0416,0 -3.4183,1.50072 -0.0416,0 0,0.0416 -2.04264,0.95879 1.16722,2.37613 2.00096,-0.95879 0,0.0416 3.37661,-1.50071 0.0416,0 3.58504,-1.50072 0.0416,0 3.87685,-1.45903 0.0416,0 1.70915,-0.6253 -0.87541,-2.50119 z m -19.75943,8.62912 -1.87589,1.08385 -0.0416,0 0,0.0416 -2.29277,1.45903 -0.0416,0.0416 -0.0416,0.0416 -1.95926,1.45903 -0.0416,0.0416 -0.0416,0.0416 -1.62578,1.45903 -0.0416,0.0416 -0.0834,0.0834 -1.29228,1.41734 -0.0416,0.0834 -0.0416,0.0416 -0.50024,0.70867 -0.0416,0.0416 -0.0416,0.0834 -0.41687,0.70867 -0.0416,0.0416 -0.0416,0.0416 -0.33349,0.70867 -0.0416,0.0834 0,0.0416 -0.25012,0.70867 -0.0416,0.0834 -0.0416,0.0834 -0.12499,0.70867 -0.0416,0.0834 0,0.0834 -0.0416,0.54193 2.62625,0.25012 0.0416,-0.37518 0.0416,-0.16675 0.0834,-0.37518 0,-0.0416 0.0416,-0.12499 0.16675,-0.41687 0.0416,-0.12499 0.20843,-0.45855 0.0834,-0.12499 0.29181,-0.50024 0.0834,-0.0834 0.37518,-0.54192 0.0834,-0.0834 1.12553,-1.2506 1.54241,-1.41734 0.0834,-0.0416 1.79252,-1.37566 0.0834,-0.0416 2.12601,-1.41734 0.0834,-0.0416 1.79252,-1.04217 -1.33397,-2.29276 z m 124.18424,-30.93134 -5.25251,0.6253 -10.63007,1.45903 0.37518,2.62625 10.58838,-1.41734 0.0416,0 5.21082,-0.66699 -0.33349,-2.62625 z"
         style="font-size:medium;font-style:normal;font-variant:normal;font-weight:normal;font-stretch:normal;text-indent:0;text-align:start;text-decoration:none;line-height:normal;letter-spacing:normal;word-spacing:normal;text-transform:none;direction:ltr;block-progression:tb;writing-mode:lr-tb;text-anchor:start;baseline-shift:baseline;color:#000000;fill:#ff64b0;fill-opacity:1;stroke:none;stroke-width:2;marker:none;visibility:visible;display:inline;overflow:visible;enable-background:accumulate;font-family:Sans;-inkscape-font-specification:Sans"
         id="path4587"
         inkscape:connector-curvature="0" />
    </g>
    <path
       sodipodi:type="star"
       style="color:#000000;fill:#77ff6d;fill-opacity:1;fill-rule:nonzero;stroke:#ffffff;stroke-width:2;stroke-linecap:round;stroke-linejoin:round;stroke-miterlimit:4;stroke-opacity:0;stroke-dasharray:12, 4;stroke-dashoffset:0;marker:none;visibility:visible;display:inline;overflow:visible;enable-background:accumulate"
       id="path4926"
       sodipodi:sides="6"
       sodipodi:cx="156.34769"
       sodipodi:cy="202.51184"
       sodipodi:r1="60.673779"
       sodipodi:r2="52.545036"
       sodipodi:arg1="-0.52359878"
       sodipodi:arg2="0"
       inkscape:flatsided="true"
       inkscape:rounded="0"
       inkscape:randomized="0"
       d="m 208.89272,172.17495 0,60.67378 -52.54503,30.33689 -52.54504,-30.33689 0,-60.67378 52.54504,-30.33689 z"
       transform="matrix(1.7601117,0,0,1.7601117,305.74534,86.971075)" />
    <g
       id="g7125"
       transform="matrix(0.61289466,0,0,0.61289466,431.59891,191.10444)">
      <path
         sodipodi:type="arc"
         style="color:#000000;fill:#ba5ef7;fill-opacity:1;fill-rule:nonzero;stroke:none;stroke-width:1;marker:none;visibility:visible;display:inline;overflow:visible;enable-background:accumulate"
         id="path7127"
         sodipodi:cx="128.88905"
         sodipodi:cy="658.03284"
         sodipodi:rx="82.368584"
         sodipodi:ry="82.368584"
         d="m 211.25764,658.03284 c 0,45.49091 -36.87767,82.36858 -82.36859,82.36858 -45.490909,0 -82.36858,-36.87767 -82.36858,-82.36858 0,-45.49092 36.877671,-82.36859 82.36858,-82.36859 45.49092,0 82.36859,36.87767 82.36859,82.36859 z"
         transform="matrix(1.0243302,0,0,1.0243302,146.74628,-265.19828)" />
      <path
         style="color:#000000;fill:#77ff6d;fill-opacity:1;fill-rule:nonzero;stroke:#ffffff;stroke-width:1.02433014;stroke-linecap:round;stroke-linejoin:round;stroke-miterlimit:4;stroke-opacity:0;stroke-dasharray:none;stroke-dashoffset:0;marker:none;visibility:visible;display:inline;overflow:visible;enable-background:accumulate"
         d="m 198.29594,434.17671 c 3.75443,11.93411 10.0805,22.72992 18.34191,31.72222 l 124.26405,0 c 8.26141,-8.9923 14.58748,-19.78811 18.34191,-31.72222 l -160.94787,0 z"
         id="path7129"
         inkscape:connector-curvature="0" />
      <path
         inkscape:connector-curvature="0"
         style="fill:#ff64b0;fill-opacity:1;stroke:#ffffff;stroke-width:1.02433014px;stroke-linecap:butt;stroke-linejoin:miter;stroke-opacity:0"
         d="m 196.19874,426.25659 c 1.36744,6.51313 3.49908,12.76446 6.27402,18.63001 l 152.59319,0 c 2.77493,-5.86555 4.90659,-12.11688 6.27402,-18.63001 l -165.14123,0 z"
         id="path7131" />
      <path
         transform="matrix(1.0211354,-0.08083751,0.08083751,1.0211354,-88.482194,-215.76674)"
         d="m 362.72113,675.81189 c 0,7.47402 -10.35534,13.5329 -23.1293,13.5329 -12.77397,0 -23.12931,-6.05888 -23.12931,-13.5329 0,-7.47402 10.35534,-13.5329 23.12931,-13.5329 12.77396,0 23.1293,6.05888 23.1293,13.5329 z"
         sodipodi:ry="13.532904"
         sodipodi:rx="23.129307"
         sodipodi:cy="675.81189"
         sodipodi:cx="339.59183"
         id="path7133"
         style="color:#000000;fill:#77ff6d;fill-opacity:1;fill-rule:nonzero;stroke:#ffffff;stroke-width:1;stroke-linecap:round;stroke-linejoin:round;stroke-miterlimit:4;stroke-opacity:0;stroke-dasharray:none;stroke-dashoffset:0;marker:none;visibility:visible;display:inline;overflow:visible;enable-background:accumulate"
         sodipodi:type="arc" />
      <path
         sodipodi:type="arc"
         style="color:#000000;fill:#ff64b0;fill-opacity:1;fill-rule:nonzero;stroke:#ffffff;stroke-width:1;stroke-linecap:round;stroke-linejoin:round;stroke-miterlimit:4;stroke-opacity:0;stroke-dasharray:none;stroke-dashoffset:0;marker:none;visibility:visible;display:inline;overflow:visible;enable-background:accumulate"
         id="path7135"
         sodipodi:cx="339.59183"
         sodipodi:cy="675.81189"
         sodipodi:rx="16.834467"
         sodipodi:ry="9.6749811"
         d="m 356.42629,675.81189 c 0,5.34334 -7.53704,9.67498 -16.83446,9.67498 -9.29742,0 -16.83447,-4.33164 -16.83447,-9.67498 0,-5.34334 7.53705,-9.67498 16.83447,-9.67498 9.29742,0 16.83446,4.33164 16.83446,9.67498 z"
         transform="matrix(1.0211354,-0.08083751,0.08083751,1.0211354,-88.085778,-215.76674)" />
      <path
         inkscape:connector-curvature="0"
         style="color:#000000;fill:#40d4ff;fill-opacity:1;fill-rule:nonzero;stroke:#ffffff;stroke-width:1.02433014;stroke-linecap:round;stroke-linejoin:round;stroke-miterlimit:4;stroke-opacity:0;stroke-dasharray:none;stroke-dashoffset:0;marker:none;visibility:visible;display:inline;overflow:visible;enable-background:accumulate"
         d="m 211.65972,459.96346 c 4.28047,5.61027 9.25915,10.66551 14.78877,15.04484 l 104.64174,0 c 5.53296,-4.38085 10.50612,-9.43174 14.78876,-15.04484 l -134.21927,0 z"
         id="path7137" />
      <path
         style="color:#000000;fill:#77ff6d;fill-opacity:1;fill-rule:nonzero;stroke:#ffffff;stroke-width:1.02433014;stroke-linecap:round;stroke-linejoin:round;stroke-miterlimit:4;stroke-opacity:0;stroke-dasharray:none;stroke-dashoffset:0;marker:none;visibility:visible;display:inline;overflow:visible;enable-background:accumulate"
         d="m 216.66986,351.71813 c -11.02997,11.98631 -18.62912,27.17756 -21.25485,44.01419 l 166.70973,0 c -2.62573,-16.83663 -10.22488,-32.02788 -21.25485,-44.01419 l -124.20003,0 z"
         id="path7139"
         inkscape:connector-curvature="0" />
      <path
         inkscape:connector-curvature="0"
         style="color:#000000;fill:#40d4ff;fill-opacity:1;fill-rule:nonzero;stroke:#ffffff;stroke-width:1.02433014;stroke-linecap:round;stroke-linejoin:round;stroke-miterlimit:4;stroke-opacity:0;stroke-dasharray:none;stroke-dashoffset:0;marker:none;visibility:visible;display:inline;overflow:visible;enable-background:accumulate"
         d="m 196.74292,388.99658 c -1.32564,5.49784 -2.0828,11.20279 -2.27274,17.0615 l 168.59835,0 c -0.18995,-5.85871 -0.94711,-11.56366 -2.27274,-17.0615 l -164.05287,0 z"
         id="path7141" />
      <path
         inkscape:connector-curvature="0"
         style="color:#000000;fill:#ff64b0;fill-opacity:1;fill-rule:nonzero;stroke:#ffffff;stroke-width:1.02433014;stroke-linecap:round;stroke-linejoin:round;stroke-miterlimit:4;stroke-opacity:0;stroke-dasharray:none;stroke-dashoffset:0;marker:none;visibility:visible;display:inline;overflow:visible;enable-background:accumulate"
         d="m 278.78536,324.46378 c -28.06428,0 -52.93906,13.71615 -68.27801,34.79521 l 136.52401,0 c -15.33895,-21.07906 -40.18172,-34.79521 -68.246,-34.79521 z"
         id="path7143" />
      <path
         sodipodi:type="arc"
         style="color:#000000;fill:#ff64b0;fill-opacity:1;fill-rule:nonzero;stroke:#ffffff;stroke-width:1;stroke-linecap:round;stroke-linejoin:round;stroke-miterlimit:4;stroke-opacity:0;stroke-dasharray:none;stroke-dashoffset:0;marker:none;visibility:visible;display:inline;overflow:visible;enable-background:accumulate"
         id="path7145"
         sodipodi:cx="91.331825"
         sodipodi:cy="717.99481"
         sodipodi:rx="10.061981"
         sodipodi:ry="10.061981"
         d="m 101.39381,717.99481 c 0,5.55708 -4.504906,10.06198 -10.061985,10.06198 -5.557079,0 -10.061981,-4.5049 -10.061981,-10.06198 0,-5.55708 4.504902,-10.06198 10.061981,-10.06198 5.557079,0 10.061985,4.5049 10.061985,10.06198 z"
         transform="matrix(1.1215299,0,0,1.1215299,140.1181,-411.77831)" />
      <path
         id="path7147"
         style="font-size:medium;font-style:normal;font-variant:normal;font-weight:normal;font-stretch:normal;text-indent:0;text-align:start;text-decoration:none;line-height:normal;letter-spacing:normal;word-spacing:normal;text-transform:none;direction:ltr;block-progression:tb;writing-mode:lr-tb;text-anchor:start;baseline-shift:baseline;color:#000000;fill:#ff64b0;fill-opacity:1;stroke:none;stroke-width:2;marker:none;visibility:visible;display:inline;overflow:visible;enable-background:accumulate;font-family:Sans;-inkscape-font-specification:Sans"
         d="m 118.78646,436.53959 -1.91758,1.87589 0.0834,0.0834 0.0416,0.0416 0.0416,0.0416 0.75036,0.6253 0.0416,0.0416 0.0416,0.0416 0.83373,0.58362 0,0.0416 0.0416,0.0416 0.95879,0.58361 0.0416,0.0416 0.0416,0.0416 2.20939,1.16722 0.0416,0.0416 0.0834,0 2.62625,1.16723 0.0416,0 0.0416,0.0416 3.12649,1.08386 0.0416,0 3.58505,1.04216 0.0416,0.0416 0.0416,0 0.2918,0.0834 0.66699,-2.58456 -0.29181,-0.0834 -0.0416,0 -3.45998,-1.00047 0,-0.0416 -3.00144,-1.04217 -0.0834,-0.0416 -2.50119,-1.04216 -0.0416,-0.0416 -0.0416,0 -2.00095,-1.08385 -0.125,-0.0834 -0.75036,-0.50023 -0.0834,-0.0416 -0.66698,-0.50024 -0.0834,-0.0834 -0.58361,-0.50024 -0.0834,-0.0416 0,-0.0416 z m 18.96739,7.37852 -0.54193,2.58457 3.08481,0.62529 0.0416,0.0416 5.04407,0.87542 0.0416,0 5.54431,0.83373 0.0416,0 2.08433,0.25012 0.33349,-2.66794 -2.08432,-0.25012 -5.50263,-0.79204 -0.0416,0 -4.9607,-0.87542 -0.0416,0 -3.04312,-0.6253 z m 20.96834,3.20986 -0.29181,2.62626 5.29419,0.54192 7.1701,0.6253 3.54335,0.25012 0.16675,-2.66794 -3.50167,-0.20843 -7.12841,-0.6253 -5.2525,-0.54193 z m 21.21845,1.75084 -0.16675,2.66794 7.1284,0.41687 0.0416,0 8.83756,0.37517 0.12499,-2.66794 -8.83742,-0.37517 -0.0416,0 -7.08671,-0.41687 z"
         inkscape:connector-curvature="0" />
      <rect
         style="color:#000000;fill:#ff64b0;fill-opacity:1;fill-rule:nonzero;stroke:#ffffff;stroke-width:3.49842286;stroke-linecap:round;stroke-linejoin:round;stroke-miterlimit:4;stroke-opacity:0;stroke-dasharray:20.99053734, 6.99684578;stroke-dashoffset:0;marker:none;visibility:visible;display:inline;overflow:visible;enable-background:accumulate"
         id="rect7149"
         width="41.466698"
         height="160.85385"
         x="135.21019"
         y="336.88739"
         ry="15.331704" />
      <path
         id="path7151"
         style="font-size:medium;font-style:normal;font-variant:normal;font-weight:normal;font-stretch:normal;text-indent:0;text-align:start;text-decoration:none;line-height:normal;letter-spacing:normal;word-spacing:normal;text-transform:none;direction:ltr;block-progression:tb;writing-mode:lr-tb;text-anchor:start;baseline-shift:baseline;color:#000000;fill:#ff64b0;fill-opacity:1;stroke:none;stroke-width:2;marker:none;visibility:visible;display:inline;overflow:visible;enable-background:accumulate;font-family:Sans;-inkscape-font-specification:Sans"
         d="m 314.04628,385.51524 -3.50167,0.0416 -6.41973,0.0834 -0.0416,0 -6.08623,0.20844 0.0834,2.66794 6.08624,-0.20844 6.41973,-0.0834 3.45998,-0.0416 0,-2.66794 z m 5.37757,0.0416 -0.0416,2.66794 3.79348,0.0416 0.0416,0 6.12792,0.16675 0.0416,0 5.96118,0.25011 0.0834,-2.66794 -5.96118,-0.25011 -0.0416,0 -6.16961,-0.16675 -0.0416,0 -3.79347,-0.0416 z m -26.76277,0.50024 -1.62578,0.0834 -6.58647,0.37518 -6.58648,0.41687 -0.0416,0 -1.16722,0.12499 0.20843,2.62625 1.16722,-0.0834 6.58648,-0.41687 6.54479,-0.37518 0.0416,0 1.58409,-0.0834 -0.12499,-2.66794 z m -21.46858,1.41734 -6.58648,0.58361 -0.0416,0 -6.58647,0.66699 -0.0416,0 -2.58457,0.2918 0.29181,2.66794 2.58456,-0.2918 6.58648,-0.66699 0.0416,0 6.58648,-0.58361 0.0834,0 -0.20843,-2.66794 -0.0834,0 -0.0416,0 z m -42.35353,5.04407 -9.83802,1.54241 -0.0416,0 -5.9195,1.08385 0.45856,2.62625 5.91948,-1.08385 9.83803,-1.5424 -0.41686,-2.62626 z m -21.0934,3.54336 -1.20891,0.20844 -12.00572,2.41782 -2.5012,0.54192 0.58361,2.58457 2.45951,-0.54193 11.96404,-2.37613 1.20891,-0.20843 -0.50024,-2.62626 z m -20.92665,4.3354 -3.79348,0.83374 -5.5443,1.33397 -5.37756,1.33397 -0.91711,0.25012 0.70867,2.58456 0.87542,-0.25012 5.33588,-1.33397 0.0416,0 5.46093,-1.33397 0.0416,0 3.75179,-0.83373 -0.58361,-2.58457 z m -20.80159,5.16914 -4.12697,1.12554 0,0.0416 -4.83564,1.41734 -4.6272,1.45903 -1.79253,0.58361 0.83373,2.54288 1.75084,-0.58361 0.0416,0 4.54384,-1.45903 0.0416,0 4.75226,-1.41734 0.0416,0 4.08528,-1.16723 -0.70867,-2.54288 z m -20.42641,6.37804 -1.75084,0.6253 -0.0416,0 -3.91853,1.50072 -0.0416,0 -3.66842,1.50071 -0.0416,0 -3.4183,1.50072 -0.0416,0 0,0.0416 -2.04264,0.95879 1.16722,2.37613 2.00096,-0.95879 0,0.0416 3.37661,-1.50071 0.0416,0 3.58504,-1.50072 0.0416,0 3.87685,-1.45903 0.0416,0 1.70915,-0.6253 -0.87541,-2.50119 z m -19.75943,8.62912 -1.87589,1.08385 -0.0416,0 0,0.0416 -2.29277,1.45903 -0.0416,0.0416 -0.0416,0.0416 -1.95926,1.45903 -0.0416,0.0416 -0.0416,0.0416 -1.62578,1.45903 -0.0416,0.0416 -0.0834,0.0834 -1.29228,1.41734 -0.0416,0.0834 -0.0416,0.0416 -0.50024,0.70867 -0.0416,0.0416 -0.0416,0.0834 -0.41687,0.70867 -0.0416,0.0416 -0.0416,0.0416 -0.33349,0.70867 -0.0416,0.0834 0,0.0416 -0.25012,0.70867 -0.0416,0.0834 -0.0416,0.0834 -0.12499,0.70867 -0.0416,0.0834 0,0.0834 -0.0416,0.54193 2.62625,0.25012 0.0416,-0.37518 0.0416,-0.16675 0.0834,-0.37518 0,-0.0416 0.0416,-0.12499 0.16675,-0.41687 0.0416,-0.12499 0.20843,-0.45855 0.0834,-0.12499 0.29181,-0.50024 0.0834,-0.0834 0.37518,-0.54192 0.0834,-0.0834 1.12553,-1.2506 1.54241,-1.41734 0.0834,-0.0416 1.79252,-1.37566 0.0834,-0.0416 2.12601,-1.41734 0.0834,-0.0416 1.79252,-1.04217 -1.33397,-2.29276 z m 124.18424,-30.93134 -5.25251,0.6253 -10.63007,1.45903 0.37518,2.62625 10.58838,-1.41734 0.0416,0 5.21082,-0.66699 -0.33349,-2.62625 z"
         inkscape:connector-curvature="0" />
    </g>
    <g
       transform="matrix(0.46401949,0,0,0.46401949,492.57174,137.45984)"
       id="g7186" />
  </g>
</svg>
